<?xml version="1.0" encoding="iso-8859-1"?>
<!-- Generator: Adobe Illustrator 18.0.0, SVG Export Plug-In . SVG Version: 6.00 Build 0)  -->
<!DOCTYPE svg PUBLIC "-//W3C//DTD SVG 1.1//EN" "http://www.w3.org/Graphics/SVG/1.1/DTD/svg11.dtd">
<svg version="1.1" id="Capa_1" xmlns="http://www.w3.org/2000/svg" xmlns:xlink="http://www.w3.org/1999/xlink" x="0px" y="0px"
	 viewBox="0 0 91.824 91.824" style="enable-background:new 0 0 91.824 91.824;" xml:space="preserve">
<g>
	<g>
		<path style="fill-rule:evenodd;clip-rule:evenodd;fill:#2C8145;" d="M45.912,91.823c25.287,0,45.912-20.624,45.912-45.911
			S71.199,0,45.912,0S0,20.625,0,45.912S20.625,91.823,45.912,91.823z"/>
		<g>
			<path style="fill-rule:evenodd;clip-rule:evenodd;fill:#FBD9BD;" d="M34.208,90.181l-0.04,0.124
				c-5.374-1.418-10.363-3.783-14.776-6.911C23.749,76.189,36.958,81.527,34.208,90.181z"/>
			<path style="fill-rule:evenodd;clip-rule:evenodd;fill:#FBD9BD;" d="M57.829,90.181l0.022,0.071
				c5.359-1.439,10.333-3.824,14.729-6.965C68.159,76.242,55.093,81.569,57.829,90.181z"/>
			<path style="fill-rule:evenodd;clip-rule:evenodd;fill:#E72C4F;" d="M23.893,79.986h44.076v6.199
				c-6.546,3.593-14.062,5.639-22.058,5.639c-7.979,0-15.481-2.037-22.019-5.617V79.986z"/>
			<path style="fill-rule:evenodd;clip-rule:evenodd;fill:#E72C4F;" d="M73.46,82.643c-4.709-5.932-16.73-1.039-14.386,7.263
				C64.326,88.336,69.183,85.855,73.46,82.643z"/>
			<path style="fill-rule:evenodd;clip-rule:evenodd;fill:#E72C4F;" d="M33.29,89.951l-0.03,0.105
				c-5.302-1.517-10.211-3.964-14.54-7.152C23.288,76.562,35.728,81.503,33.29,89.951z"/>
			<path style="fill-rule:evenodd;clip-rule:evenodd;fill:#E72C4F;" d="M35.978,85.246l9.953,4.693l9.953-4.693l2.401,4.889
				c-3.937,1.099-8.086,1.689-12.374,1.689c-4.279,0-8.422-0.588-12.352-1.684L35.978,85.246z"/>
			<path style="fill-rule:evenodd;clip-rule:evenodd;fill:#FFDDCB;" d="M55.751,62.345v19.509c-2.747,3.45-6.341,7.922-9.82,8.086
				c-3.707,0.174-7.295-4.19-9.818-8.086V62.345C36.113,50.24,55.751,50.24,55.751,62.345z"/>
			<path style="fill-rule:evenodd;clip-rule:evenodd;fill:#ECC2A0;" d="M55.751,60.465v15.008c-3.717,2.709-7.298,4.226-9.82,4.226
				c-2.521,0-6.104-1.517-9.818-4.226V60.465C36.113,48.359,55.751,48.359,55.751,60.465z"/>
			<path style="fill-rule:evenodd;clip-rule:evenodd;fill:#FFDDCB;" d="M45.931,22.099c-32.955,0-21.103,39.821-18.951,42.991
				c2.373,3.495,13.627,12.761,18.951,12.761c5.325,0,16.578-9.265,18.952-12.761C67.037,61.92,78.888,22.099,45.931,22.099z"/>
			<path style="fill-rule:evenodd;clip-rule:evenodd;fill:#ECC2A0;" d="M54.709,65.733c-7.728,0.355-15.367-2.489-20.04-6.708
				C34.961,65.42,49.681,70.398,54.709,65.733z"/>
			<path style="fill-rule:evenodd;clip-rule:evenodd;fill:#ECC2A0;" d="M36.702,58.47c-1.611,0.626-2.915,1.897-3.488,3.183
				C32.836,59.904,35.403,57.529,36.702,58.47z"/>
			<path style="fill-rule:evenodd;clip-rule:evenodd;fill:#4D1B02;" d="M38.339,29.93c-7.38-0.079-12.622,2.673-14.918,9.436
				c0.193-5.066,0.145-13.035,0.712-18.531c0.36-3.48,3.044-8.256,10.493-9.678c1.529-0.292-3.874,3.598-2.244,2.988
				c3.627-1.359,7.435-3.488,10.69-3.945c2.232-0.313-3.31,4.074-1.477,3.256c4.771-2.132,8.392-4.356,11.794-4.446
				c2.046-0.055-6.401,4.76-4.968,4.277c7.525-2.534,9.866-4.603,13.515-5.175c1.36-0.213-9.326,6.777-4.461,5.462
				c5.372-1.452,8.827-4.95,11.095-4.664c2.252,0.285-2.197,3.193-1.366,7.134c0.94,4.463,0.717,16.652,0.972,23.322
				c-2.295-6.763-8.207-9.77-14.918-9.436C47.76,30.203,43.758,29.988,38.339,29.93z"/>
			
				<ellipse transform="matrix(-0.3128 -0.9498 0.9498 -0.3128 -19.4711 89.6231)" style="fill-rule:evenodd;clip-rule:evenodd;fill:#FFDDCB;" cx="22.685" cy="51.855" rx="5.702" ry="3.297"/>
			
				<ellipse transform="matrix(0.3127 -0.9499 0.9499 0.3127 -1.3613 101.8288)" style="fill-rule:evenodd;clip-rule:evenodd;fill:#FFDDCB;" cx="69.682" cy="51.855" rx="5.701" ry="3.297"/>
			<path style="fill-rule:evenodd;clip-rule:evenodd;fill:#F97D93;" d="M56.658,76.232l3.254,3.754l-2.646,10.422
				c-1.646,0.418-3.327,0.745-5.039,0.98l-3.075-3.645L56.658,76.232z"/>
			<path style="fill-rule:evenodd;clip-rule:evenodd;fill:#F97D93;" d="M35.386,76.232l-3.254,3.754l2.662,10.479
				c1.633,0.406,3.303,0.725,5.001,0.952l3.099-3.673L35.386,76.232z"/>
			<path style="fill-rule:evenodd;clip-rule:evenodd;fill:#BC1837;" d="M49.915,88.65c-1.216,0.779-2.474,1.289-3.983,1.289
				l3.22-2.195L49.915,88.65L49.915,88.65z M45.931,89.939l-3.037-2.195l-0.946,1.121C43.069,89.441,44.611,89.939,45.931,89.939z"
				/>
			<path style="opacity:0.2;fill-rule:evenodd;clip-rule:evenodd;" d="M45.912,11.415c2.774-1.316,5.165-2.345,7.457-2.407
				c2.046-0.054-6.4,4.761-4.969,4.278c7.526-2.534,9.867-4.603,13.515-5.175c1.361-0.213-9.324,6.777-4.459,5.462
				c5.371-1.452,8.825-4.95,11.094-4.664c2.252,0.285-2.197,3.193-1.366,7.134c0.94,4.463,0.717,16.652,0.972,23.323l-0.004-0.011
				c0.47,2.624,0.603,5.337,0.518,7.976c0.899-0.818,1.897-1.182,2.774-0.892c1.73,0.569,2.334,3.455,1.349,6.447
				c-0.984,2.99-3.186,4.953-4.914,4.384c-0.156-0.052-0.304-0.122-0.441-0.21c-0.897,4.166-2.038,7.238-2.575,8.029
				c-1.266,1.865-5.06,5.371-9.132,8.238v2.145v2.15l0.907-1.391l3.254,3.754h8.058v0.043c2.1,0.063,4.117,0.874,5.501,2.622
				c-7.672,5.759-17.206,9.173-27.537,9.173V11.415z"/>
		</g>
	</g>
</g>
<g>
</g>
<g>
</g>
<g>
</g>
<g>
</g>
<g>
</g>
<g>
</g>
<g>
</g>
<g>
</g>
<g>
</g>
<g>
</g>
<g>
</g>
<g>
</g>
<g>
</g>
<g>
</g>
<g>
</g>
</svg>
