<?xml version="1.0" encoding="iso-8859-1"?>
<!-- Generator: Adobe Illustrator 17.1.0, SVG Export Plug-In . SVG Version: 6.00 Build 0)  -->
<!DOCTYPE svg PUBLIC "-//W3C//DTD SVG 1.1//EN" "http://www.w3.org/Graphics/SVG/1.1/DTD/svg11.dtd">
<svg version="1.1" id="Capa_1" xmlns="http://www.w3.org/2000/svg" xmlns:xlink="http://www.w3.org/1999/xlink" x="0px" y="0px"
	 viewBox="0 0 465.286 465.286" style="enable-background:new 0 0 465.286 465.286;" xml:space="preserve">
<g>
	<path d="M463.243,415.467L317.534,260.945c-2.841-3.012-7.588-3.151-10.602-0.312c-3.014,2.842-3.153,7.589-0.311,10.603
		L447.333,420.46l-26.739,26.739L282.051,316.558c-3.015-2.842-7.761-2.701-10.602,0.312c-2.842,3.014-2.703,7.761,0.311,10.603
		l143.842,135.637c1.447,1.364,3.297,2.043,5.145,2.043c1.921,0,3.842-0.734,5.304-2.196l37.039-37.039
		C465.958,423.048,466.026,418.419,463.243,415.467z"/>
	<path d="M3.816,116.093l108.913,61.42l21.488,20.262c1.449,1.366,3.298,2.043,5.144,2.043c1.994,0,3.982-0.79,5.458-2.354
		c2.842-3.014,2.703-7.761-0.311-10.603l-17.3-16.313l43.475-43.475l26.381,27.977c2.842,3.013,7.588,3.152,10.602,0.312
		c3.014-2.842,3.153-7.589,0.311-10.603l-31.04-32.917L116.753,3.997c-1.499-2.686-4.492-4.186-7.536-3.779
		C88.422,2.976,62.691,17.84,40.388,39.981c-22.29,22.127-37.36,47.743-40.313,68.523C-0.36,111.563,1.125,114.576,3.816,116.093z
		 M50.956,50.627c18.237-18.104,38.509-30.731,55.312-34.635l55.26,99.022l-46.548,46.547l-99.1-55.885
		C19.944,88.892,32.732,68.717,50.956,50.627z"/>
	<path d="M270.078,286.408l-5.067-5.067l88.544-88.544c2.532-2.532,2.87-6.421,1.025-9.322l85.391-85.391
		c22.522-22.521,29.316-63.501,22.873-90.108c-0.661-2.73-2.793-4.862-5.524-5.523c-26.606-6.443-67.586,0.351-90.107,22.872
		l-85.393,85.393c-1.192-0.757-2.582-1.173-4.017-1.173c-1.989,0-3.897,0.79-5.303,2.196l-88.544,88.544l-5.068-5.068
		c-1.406-1.406-3.314-2.196-5.303-2.196s-3.897,0.79-5.303,2.196L2.34,361.158c-1.407,1.407-2.197,3.314-2.197,5.304
		s0.79,3.896,2.197,5.304l91.191,91.19c1.464,1.464,3.384,2.196,5.303,2.196s3.839-0.732,5.303-2.196l165.941-165.94
		C273.007,294.086,273.007,289.338,270.078,286.408z M377.819,87.476c-14.211-14.211-14.211-37.334,0-51.545
		c16.765-16.766,49.089-23.384,71.365-19.819c3.563,22.272-3.052,54.591-19.812,71.358c-0.002,0.002-0.005,0.004-0.007,0.006
		l-0.02,0.02c-7.212,7.201-16.806,10.992-26.988,10.635c-4.152-0.154-7.608,3.104-7.748,7.244s3.104,7.608,7.244,7.748
		c0.571,0.019,1.141,0.028,1.71,0.028c0.043,0,0.086-0.003,0.13-0.003l-59.589,59.589l-51.545-51.545L352.17,61.58
		c-0.032,13.216,4.98,26.442,15.042,36.504c2.929,2.928,7.678,2.928,10.606,0C380.748,95.154,380.748,90.406,377.819,87.476z
		 M277.802,127.65l59.843,59.843l-83.241,83.241l-59.842-59.842L277.802,127.65z M98.834,447.046L18.25,366.462l155.334-155.335
		l5.064,5.063c0.002,0.001,0.003,0.003,0.004,0.005s0.003,0.003,0.005,0.004l70.444,70.444l0,0l0,0l5.067,5.067L98.834,447.046z"/>
</g>
<g>
</g>
<g>
</g>
<g>
</g>
<g>
</g>
<g>
</g>
<g>
</g>
<g>
</g>
<g>
</g>
<g>
</g>
<g>
</g>
<g>
</g>
<g>
</g>
<g>
</g>
<g>
</g>
<g>
</g>
</svg>
