<?xml version="1.0" encoding="iso-8859-1"?>
<!-- Generator: Adobe Illustrator 19.0.0, SVG Export Plug-In . SVG Version: 6.00 Build 0)  -->
<svg version="1.1" id="Layer_1" xmlns="http://www.w3.org/2000/svg" xmlns:xlink="http://www.w3.org/1999/xlink" x="0px" y="0px"
	 viewBox="0 0 512 512" style="enable-background:new 0 0 512 512;" xml:space="preserve">
<circle style="fill:#FFDC64;" cx="256" cy="256" r="256"/>
<circle style="fill:#FFC850;" cx="256" cy="256" r="220.69"/>
<circle style="fill:#FFF082;" cx="256" cy="256" r="194.207"/>
<path style="fill:#E7B452;" d="M331.353,326.673c-17.612,19.887-41.241,30.845-66.526,30.845c-39.762,0-73.654-27.614-86.79-66.207
	h95.617c7.31,0,13.241-5.931,13.241-13.241c0-7.31-5.931-13.241-13.241-13.241H172.546c-0.231-2.915-0.408-5.848-0.408-8.828
	s0.178-5.912,0.408-8.828h101.109c7.31,0,13.241-5.931,13.241-13.241s-5.931-13.241-13.241-13.241h-95.617
	c13.135-38.593,47.028-66.207,86.79-66.207c25.284,0,48.914,10.957,66.535,30.854c4.845,5.474,13.216,5.992,18.69,1.138
	c5.474-4.845,5.983-13.216,1.138-18.69C328.474,142.13,297.802,128,264.828,128c-54.302,0-100.139,39.25-114.456,92.69h-17.958
	c-7.31,0-13.241,5.931-13.241,13.241s5.931,13.241,13.241,13.241h13.657c-0.188,2.93-0.416,5.848-0.416,8.828
	s0.23,5.898,0.416,8.828h-13.657c-7.31,0-13.241,5.931-13.241,13.241c0,7.31,5.931,13.241,13.241,13.241h17.958
	C164.689,344.75,210.526,384,264.828,384c32.974,0,63.638-14.13,86.354-39.776c4.845-5.474,4.337-13.845-1.138-18.69
	C344.569,320.681,336.207,321.198,331.353,326.673z"/>
<g>
</g>
<g>
</g>
<g>
</g>
<g>
</g>
<g>
</g>
<g>
</g>
<g>
</g>
<g>
</g>
<g>
</g>
<g>
</g>
<g>
</g>
<g>
</g>
<g>
</g>
<g>
</g>
<g>
</g>
</svg>
